mtllib ./model.mtl

v -125 0 25
v -125 350 25
v 125 0 25
v 125 350 25
v 125 0 -25
v 125 350 -25
v -125 0 -25
v -125 350 -25
v 75 0 25
v 75 350 25
v 75 350 -25
v 75 0 -25
v -75 0 25
v -75 350 25
v -75 350 -25
v -75 0 -25
v -125 300 25
v -75 300 25
v 75 300 25
v 125 300 25
v 125 300 -25
v 75 300 -25
v -75 300 -25
v -125 300 -25
# 24 vertices

vn 0 0 1
vn 1 0 0
vn 0 0 -1
vn -1 0 0
vn 0 1 0
vn 0 -1 0
# 6 normals

vt 1.125 1.125 0
vt 1.125 -0.375 0
vt 0.875 -0.375 0
vt 0.875 1.125 0
vt 0.375 -0.375 0
vt 0.375 1.125 0
vt 0.625 1.125 0
vt 0.625 -0.375 0
vt -0.125 -0.375 0
vt -0.125 1.125 0
vt 0.125 1.125 0
vt 0.125 -0.375 0
vt 0.875 0.625 0
vt 1.125 0.625 0
vt 1.125 0.375 0
vt 0.875 0.375 0
vt 0.375 1.375 0
vt 0.625 1.375 0
vt 0.125 0.375 0
vt 0.125 0.625 0
vt 0.875 1.375 0
vt 1.125 1.375 0
vt 0.125 1.375 0
vt -0.125 0.375 0
vt -0.125 0.625 0
vt -0.125 1.375 0
# 26 texture coordinates

o Объект_Куб
usemtl tex
f 19/4/1 9/3/1 3/2/1 20/1/1
f 5/8/2 21/7/2 20/6/2 3/5/2
f 12/12/3 22/11/3 21/10/3 5/9/3
f 1/8/4 17/7/4 24/6/4 7/5/4
f 10/16/5 4/15/5 6/14/5 11/13/5
f 12/16/6 5/15/6 3/14/6 9/13/6
f 17/7/4 2/18/4 8/17/4 24/6/4
f 11/13/5 15/20/5 14/19/5 10/16/5
f 24/1/3 8/22/3 15/21/3 23/4/3
f 23/4/3 15/21/3 11/23/3 22/11/3
f 18/11/1 17/10/1 1/9/1 13/12/1
f 15/20/5 8/25/5 2/24/5 14/19/5
f 23/4/3 16/3/3 7/2/3 24/1/3
f 13/20/6 1/25/6 7/24/6 16/19/6
f 18/11/1 14/23/1 2/26/1 17/10/1
f 19/4/1 10/21/1 14/23/1 18/11/1
f 20/1/1 4/22/1 10/21/1 19/4/1
f 21/7/2 6/18/2 4/17/2 20/6/2
f 22/11/3 11/23/3 6/26/3 21/10/3
f 13/5/2 16/8/2 23/7/2 18/6/2
f 23/19/6 22/16/6 19/13/6 18/20/6
f 19/7/4 22/6/4 12/5/4 9/8/4

