# WaveFront *.obj file (generated by CINEMA 4D)

mtllib ./model.mtl

v -28.86751365661621 -28.86751365661621 28.86751365661621
v -33.33333206176758 -16.66666603088379 33.33333206176758
v -35.35533905029297 0 35.35533905029297
v -33.33333206176758 16.66666603088379 33.33333206176758
v -28.86751365661621 28.86751365661621 28.86751365661621
v -16.66666603088379 -33.33333206176758 33.33333206176758
v -20.41241455078125 -20.41241455078125 40.8248291015625
v -22.36067962646484 0 44.72135925292969
v -20.41241455078125 20.41241455078125 40.8248291015625
v -16.66666603088379 33.33333206176758 33.33333206176758
v 0 -35.35533905029297 35.35533905029297
v 0 -22.36067962646484 44.72135925292969
v 0 0 50
v 0 22.36067962646484 44.72135925292969
v 0 35.35533905029297 35.35533905029297
v 16.66666603088379 -33.33333206176758 33.33333206176758
v 20.41241455078125 -20.41241455078125 40.8248291015625
v 22.36067962646484 0 44.72135925292969
v 20.41241455078125 20.41241455078125 40.8248291015625
v 16.66666603088379 33.33333206176758 33.33333206176758
v 28.86751365661621 -28.86751365661621 28.86751365661621
v 33.33333206176758 -16.66666603088379 33.33333206176758
v 35.35533905029297 0 35.35533905029297
v 33.33333206176758 16.66666603088379 33.33333206176758
v 28.86751365661621 28.86751365661621 28.86751365661621
v 33.33333206176758 -33.33333206176758 16.66666603088379
v 40.8248291015625 -20.41241455078125 20.41241455078125
v 44.72135925292969 0 22.36067962646484
v 40.8248291015625 20.41241455078125 20.41241455078125
v 33.33333206176758 33.33333206176758 16.66666603088379
v 35.35533905029297 -35.35533905029297 0
v 44.72135925292969 -22.36067962646484 0
v 50 0 0
v 44.72135925292969 22.36067962646484 0
v 35.35533905029297 35.35533905029297 0
v 33.33333206176758 -33.33333206176758 -16.66666603088379
v 40.8248291015625 -20.41241455078125 -20.41241455078125
v 44.72135925292969 0 -22.36067962646484
v 40.8248291015625 20.41241455078125 -20.41241455078125
v 33.33333206176758 33.33333206176758 -16.66666603088379
v 28.86751365661621 -28.86751365661621 -28.86751365661621
v 33.33333206176758 -16.66666603088379 -33.33333206176758
v 35.35533905029297 0 -35.35533905029297
v 33.33333206176758 16.66666603088379 -33.33333206176758
v 28.86751365661621 28.86751365661621 -28.86751365661621
v 16.66666603088379 -33.33333206176758 -33.33333206176758
v 20.41241455078125 -20.41241455078125 -40.8248291015625
v 22.36067962646484 0 -44.72135925292969
v 20.41241455078125 20.41241455078125 -40.8248291015625
v 16.66666603088379 33.33333206176758 -33.33333206176758
v 0 -35.35533905029297 -35.35533905029297
v 0 -22.36067962646484 -44.72135925292969
v 0 0 -50
v 0 22.36067962646484 -44.72135925292969
v 0 35.35533905029297 -35.35533905029297
v -16.66666603088379 -33.33333206176758 -33.33333206176758
v -20.41241455078125 -20.41241455078125 -40.8248291015625
v -22.36067962646484 0 -44.72135925292969
v -20.41241455078125 20.41241455078125 -40.8248291015625
v -16.66666603088379 33.33333206176758 -33.33333206176758
v -28.86751365661621 -28.86751365661621 -28.86751365661621
v -33.33333206176758 -16.66666603088379 -33.33333206176758
v -35.35533905029297 0 -35.35533905029297
v -33.33333206176758 16.66666603088379 -33.33333206176758
v -28.86751365661621 28.86751365661621 -28.86751365661621
v -33.33333206176758 -33.33333206176758 -16.66666603088379
v -40.8248291015625 -20.41241455078125 -20.41241455078125
v -44.72135925292969 0 -22.36067962646484
v -40.8248291015625 20.41241455078125 -20.41241455078125
v -33.33333206176758 33.33333206176758 -16.66666603088379
v -35.35533905029297 -35.35533905029297 0
v -44.72135925292969 -22.36067962646484 0
v -50 0 0
v -44.72135925292969 22.36067962646484 0
v -35.35533905029297 35.35533905029297 0
v -33.33333206176758 -33.33333206176758 16.66666603088379
v -40.8248291015625 -20.41241455078125 20.41241455078125
v -44.72135925292969 0 22.36067962646484
v -40.8248291015625 20.41241455078125 20.41241455078125
v -33.33333206176758 33.33333206176758 16.66666603088379
v -20.41241455078125 40.8248291015625 20.41241455078125
v -22.36067962646484 44.72135925292969 0
v -20.41241455078125 40.8248291015625 -20.41241455078125
v 0 44.72135925292969 22.36067962646484
v 0 50 0
v 0 44.72135925292969 -22.36067962646484
v 20.41241455078125 40.8248291015625 20.41241455078125
v 22.36067962646484 44.72135925292969 0
v 20.41241455078125 40.8248291015625 -20.41241455078125
v -20.41241455078125 -40.8248291015625 -20.41241455078125
v -22.36067962646484 -44.72135925292969 0
v -20.41241455078125 -40.8248291015625 20.41241455078125
v 0 -44.72135925292969 -22.36067962646484
v 0 -50 0
v 0 -44.72135925292969 22.36067962646484
v 20.41241455078125 -40.8248291015625 -20.41241455078125
v 22.36067962646484 -44.72135925292969 0
v 20.41241455078125 -40.8248291015625 20.41241455078125
# 98 vertices

vn -0.57931792736053 -0.57931792736053 0.57339465618134
vn -0.66530442237854 -0.35129979252815 0.6587553024292
vn -0.37625178694725 -0.37625178694725 0.84668123722076
vn -0.35129979252815 -0.6653043627739 0.6587553024292
vn -0.00066991749918 -0.39875775575638 0.91705602407455
vn 0.00000000385887 -0.70710676908493 0.70710682868958
vn 0.37213557958603 -0.37213557958603 0.85031187534332
vn 0.35129979252815 -0.6587553024292 0.66530442237854
vn 0.6587553024292 -0.35129976272583 0.66530442237854
vn 0.57537078857422 -0.57537078857422 0.58128893375397
vn -0.70710676908493 0.00000000385887 0.70710682868958
vn -0.39875775575638 -0.00066991738277 0.9170560836792
vn 0 -0.00000000390793 1
vn 0.39875775575638 0.00066991359927 0.9170560836792
vn 0.70710676908493 0 0.70710676908493
vn -0.6587553024292 0.35129979252815 0.66530442237854
vn -0.37213557958603 0.37213557958603 0.85031187534332
vn 0.00066991359927 0.39875775575638 0.9170560836792
vn 0.37625178694725 0.37625181674957 0.84668123722076
vn 0.66530442237854 0.35129979252815 0.6587553024292
vn -0.57537078857422 0.57537078857422 0.58128893375397
vn -0.35129979252815 0.6587553024292 0.66530442237854
vn -0.00000000385887 0.70710676908493 0.70710676908493
vn 0.35129976272583 0.66530442237854 0.6587553024292
vn 0.57931792736053 0.57931792736053 0.57339465618134
vn 0.84668123722076 -0.37625178694725 0.37625178694725
vn 0.66148138046265 -0.66148138046265 0.35339027643204
vn 0.91705602407455 -0.39875775575638 0.00066990969935
vn 0.707106590271 -0.707106590271 0.00077080068877
vn 0.85031187534332 -0.37213557958603 -0.37213557958603
vn 0.66258972883224 -0.66258972883224 -0.34921300411224
vn 0.66530442237854 -0.35129976272583 -0.6587553024292
vn 0.57931792736053 -0.57931792736053 -0.57339465618134
vn 0.9170560836792 -0.00066991738277 0.39875775575638
vn 1 -0.00000000390793 0
vn 0.9170560836792 0.00066991749918 -0.39875775575638
vn 0.70710676908493 0.00000000385887 -0.70710676908493
vn 0.85031181573868 0.37213557958603 0.37213554978371
vn 0.91705602407455 0.39875775575638 -0.00066991738277
vn 0.84668123722076 0.37625178694725 -0.37625181674957
vn 0.6587553024292 0.35129979252815 -0.66530442237854
vn 0.66258972883224 0.66258972883224 0.34921300411224
vn 0.707106590271 0.707106590271 -0.00077080843039
vn 0.66148138046265 0.66148138046265 -0.35339027643204
vn 0.57537078857422 0.57537078857422 -0.58128893375397
vn 0.37625178694725 -0.37625178694725 -0.84668123722076
vn 0.35129976272583 -0.66530442237854 -0.6587553024292
vn 0.00066991749918 -0.39875775575638 -0.91705602407455
vn -0.00000000385887 -0.70710676908493 -0.70710676908493
vn -0.37213557958603 -0.37213557958603 -0.85031187534332
vn -0.35129979252815 -0.6587553024292 -0.66530442237854
vn -0.6587553024292 -0.35129976272583 -0.66530442237854
vn -0.57537078857422 -0.57537078857422 -0.58128893375397
vn 0.39875775575638 -0.00066991738277 -0.9170560836792
vn 0 -0.00000000390793 -1
vn -0.39875775575638 0.00066991359927 -0.9170560836792
vn -0.70710676908493 0 -0.70710676908493
vn 0.37213557958603 0.37213557958603 -0.85031187534332
vn -0.00066991359927 0.39875775575638 -0.9170560836792
vn -0.37625178694725 0.37625181674957 -0.84668123722076
vn -0.66530442237854 0.35129979252815 -0.6587553024292
vn 0.35129979252815 0.6587553024292 -0.66530442237854
vn 0.00000000385887 0.70710676908493 -0.70710682868958
vn -0.35129979252815 0.6653043627739 -0.6587553024292
vn -0.57931792736053 0.57931792736053 -0.57339465618134
vn -0.84668123722076 -0.37625178694725 -0.37625178694725
vn -0.66148144006729 -0.66148138046265 -0.35339030623436
vn -0.91705602407455 -0.39875775575638 -0.00066990969935
vn -0.707106590271 -0.707106590271 -0.00077080068877
vn -0.85031187534332 -0.37213557958603 0.37213557958603
vn -0.66258972883224 -0.66258972883224 0.34921297430992
vn -0.9170560836792 -0.00066991738277 -0.39875775575638
vn -1 -0.00000000390793 0
vn -0.9170560836792 0.00066991749918 0.39875775575638
vn -0.85031181573868 0.37213557958603 -0.37213554978371
vn -0.91705602407455 0.39875775575638 0.00066991738277
vn -0.84668123722076 0.37625178694725 0.37625181674957
vn -0.66258972883224 0.66258972883224 -0.34921297430992
vn -0.707106590271 0.707106590271 0.00077080453048
vn -0.66148138046265 0.66148138046265 0.35339027643204
vn -0.37625178694725 0.84668123722076 0.37625178694725
vn -0.00066991749918 0.91705602407455 0.39875775575638
vn 0.37213557958603 0.85031187534332 0.37213557958603
vn -0.39875775575638 0.9170560836792 0.00066991354106
vn 0 1 0.00000000390793
vn 0.39875775575638 0.9170560836792 -0.00066991359927
vn -0.37213557958603 0.85031181573868 -0.37213554978371
vn 0.00066992128268 0.9170560836792 -0.39875775575638
vn 0.37625181674957 0.84668123722076 -0.37625178694725
vn -0.37625178694725 -0.84668123722076 -0.37625178694725
vn -0.00066991749918 -0.91705602407455 -0.39875775575638
vn 0.37213557958603 -0.85031187534332 -0.37213557958603
vn -0.39875775575638 -0.9170560836792 -0.00066991354106
vn 0 -1 -0.00000000390793
vn 0.39875775575638 -0.9170560836792 0.00066991359927
vn -0.37213557958603 -0.85031181573868 0.37213554978371
vn 0.00066992128268 -0.9170560836792 0.39875775575638
vn 0.37625181674957 -0.84668123722076 0.37625178694725
# 98 normals

vt 0.25 0.30408680438995 0
vt 0.25 0.39182662963867 0
vt 0.35241639614105 0.36613976955414 0
vt 0.35241639614105 0.26772046089172 0
vt 0.5 0.35241639614105 0
vt 0.5 0.25 0
vt 0.64758360385895 0.36613976955414 0
vt 0.64758360385895 0.26772046089172 0
vt 0.75 0.39182662963867 0
vt 0.75 0.30408680438995 0
vt 0.25 0.5 0
vt 0.35241639614105 0.5 0
vt 0.5 0.5 0
vt 0.64758360385895 0.5 0
vt 0.75 0.5 0
vt 0.25 0.60817348957062 0
vt 0.35241639614105 0.63386023044586 0
vt 0.5 0.64758360385895 0
vt 0.64758360385895 0.63386023044586 0
vt 0.75 0.60817348957062 0
vt 0.25 0.69591331481934 0
vt 0.35241639614105 0.73227953910828 0
vt 0.5 0.75 0
vt 0.64758360385895 0.73227953910828 0
vt 0.75 0.69591331481934 0
vt 0.85241639614105 0.36613976955414 0
vt 0.85241639614105 0.26772046089172 0
vt 1 0.35241639614105 0
vt 1 0.25 0
vt 0.02400000393391 0.03200006484985 0
vt 0.85241639614105 0.5 0
vt 1 0.5 0
vt 0.85241639614105 0.63386023044586 0
vt 1 0.64758360385895 0
vt 0.85241639614105 0.73227953910828 0
vt 1 0.75 0
vt 0 0.25 0
vt 0 0.35241639614105 0
vt 0.14758360385895 0.36613976955414 0
vt 0.14758360385895 0.26772046089172 0
vt 0 0.5 0
vt 0.14758360385895 0.5 0
vt 0 0.64758360385895 0
vt 0.14758360385895 0.63386023044586 0
vt 0 0.75 0
vt 0.14758360385895 0.73227953910828 0
vt 0.25 0.80408674478531 0
vt 0.5 0.85241639614105 0
vt 0.75 0.80408674478531 0
vt 0.20400001108646 0.94441640377045 0
vt 0.5 1 0
vt 0.82400000095367 0.94841641187668 0
vt 0.25 0.19591331481934 0
vt 0.17599999904633 0.06758368015289 0
vt 0.5 0.14758360385895 0
vt 0.5 0 0
vt 0.75 0.19591331481934 0
vt 0.82400000095367 0.05958366394043 0
# 58 texture coordinates

o Объект_Сфера
usemtl /models/eye/eye.png;lightgroup=0;wrap=clamp
f 6/4/4 7/3/3 2/2/2 1/1/1
f 11/6/6 12/5/5 7/3/3 6/4/4
f 16/8/8 17/7/7 12/5/5 11/6/6
f 21/10/10 22/9/9 17/7/7 16/8/8
f 7/3/3 8/12/12 3/11/11 2/2/2
f 12/5/5 13/13/13 8/12/12 7/3/3
f 17/7/7 18/14/14 13/13/13 12/5/5
f 22/9/9 23/15/15 18/14/14 17/7/7
f 8/12/12 9/17/17 4/16/16 3/11/11
f 13/13/13 14/18/18 9/17/17 8/12/12
f 18/14/14 19/19/19 14/18/18 13/13/13
f 23/15/15 24/20/20 19/19/19 18/14/14
f 9/17/17 10/22/22 5/21/21 4/16/16
f 14/18/18 15/23/23 10/22/22 9/17/17
f 19/19/19 20/24/24 15/23/23 14/18/18
f 24/20/20 25/25/25 20/24/24 19/19/19
f 26/27/27 27/26/26 22/9/9 21/10/10
f 31/29/29 32/28/28 27/26/26 26/27/27
f 36/30/31 37/30/30 32/30/28 31/30/29
f 41/30/33 42/30/32 37/30/30 36/30/31
f 27/26/26 28/31/34 23/15/15 22/9/9
f 32/28/28 33/32/35 28/31/34 27/26/26
f 37/30/30 38/30/36 33/30/35 32/30/28
f 42/30/32 43/30/37 38/30/36 37/30/30
f 28/31/34 29/33/38 24/20/20 23/15/15
f 33/32/35 34/34/39 29/33/38 28/31/34
f 38/30/36 39/30/40 34/30/39 33/30/35
f 43/30/37 44/30/41 39/30/40 38/30/36
f 29/33/38 30/35/42 25/25/25 24/20/20
f 34/34/39 35/36/43 30/35/42 29/33/38
f 39/30/40 40/30/44 35/30/43 34/30/39
f 44/30/41 45/30/45 40/30/44 39/30/40
f 46/30/47 47/30/46 42/30/32 41/30/33
f 51/30/49 52/30/48 47/30/46 46/30/47
f 56/30/51 57/30/50 52/30/48 51/30/49
f 61/30/53 62/30/52 57/30/50 56/30/51
f 47/30/46 48/30/54 43/30/37 42/30/32
f 52/30/48 53/30/55 48/30/54 47/30/46
f 57/30/50 58/30/56 53/30/55 52/30/48
f 62/30/52 63/30/57 58/30/56 57/30/50
f 48/30/54 49/30/58 44/30/41 43/30/37
f 53/30/55 54/30/59 49/30/58 48/30/54
f 58/30/56 59/30/60 54/30/59 53/30/55
f 63/30/57 64/30/61 59/30/60 58/30/56
f 49/30/58 50/30/62 45/30/45 44/30/41
f 54/30/59 55/30/63 50/30/62 49/30/58
f 59/30/60 60/30/64 55/30/63 54/30/59
f 64/30/61 65/30/65 60/30/64 59/30/60
f 66/30/67 67/30/66 62/30/52 61/30/53
f 71/30/69 72/30/68 67/30/66 66/30/67
f 76/40/71 77/39/70 72/38/68 71/37/69
f 1/1/1 2/2/2 77/39/70 76/40/71
f 67/30/66 68/30/72 63/30/57 62/30/52
f 72/30/68 73/30/73 68/30/72 67/30/66
f 77/39/70 78/42/74 73/41/73 72/38/68
f 2/2/2 3/11/11 78/42/74 77/39/70
f 68/30/72 69/30/75 64/30/61 63/30/57
f 73/30/73 74/30/76 69/30/75 68/30/72
f 78/42/74 79/44/77 74/43/76 73/41/73
f 3/11/11 4/16/16 79/44/77 78/42/74
f 69/30/75 70/30/78 65/30/65 64/30/61
f 74/30/76 75/30/79 70/30/78 69/30/75
f 79/44/77 80/46/80 75/45/79 74/43/76
f 4/16/16 5/21/21 80/46/80 79/44/77
f 10/22/22 81/47/81 80/46/80 5/21/21
f 15/23/23 84/48/82 81/47/81 10/22/22
f 20/24/24 87/49/83 84/48/82 15/23/23
f 25/25/25 30/35/42 87/49/83 20/24/24
f 81/47/81 82/50/84 75/45/79 80/46/80
f 84/48/82 85/51/85 82/50/84 81/47/81
f 87/49/83 88/52/86 85/51/85 84/48/82
f 30/35/42 35/36/43 88/52/86 87/49/83
f 82/30/84 83/30/87 70/30/78 75/30/79
f 85/30/85 86/30/88 83/30/87 82/30/84
f 88/30/86 89/30/89 86/30/88 85/30/85
f 35/30/43 40/30/44 89/30/89 88/30/86
f 83/30/87 60/30/64 65/30/65 70/30/78
f 86/30/88 55/30/63 60/30/64 83/30/87
f 89/30/89 50/30/62 55/30/63 86/30/88
f 40/30/44 45/30/45 50/30/62 89/30/89
f 56/30/51 90/30/90 66/30/67 61/30/53
f 51/30/49 93/30/91 90/30/90 56/30/51
f 46/30/47 96/30/92 93/30/91 51/30/49
f 41/30/33 36/30/31 96/30/92 46/30/47
f 90/30/90 91/30/93 71/30/69 66/30/67
f 93/30/91 94/30/94 91/30/93 90/30/90
f 96/30/92 97/30/95 94/30/94 93/30/91
f 36/30/31 31/30/29 97/30/95 96/30/92
f 91/54/93 92/53/96 76/40/71 71/37/69
f 94/56/94 95/55/97 92/53/96 91/54/93
f 97/58/95 98/57/98 95/55/97 94/56/94
f 31/29/29 26/27/27 98/57/98 97/58/95
f 92/53/96 6/4/4 1/1/1 76/40/71
f 95/55/97 11/6/6 6/4/4 92/53/96
f 98/57/98 16/8/8 11/6/6 95/55/97
f 26/27/27 21/10/10 16/8/8 98/57/98

