v -10 0 4
v -10 12 4
v 10 0 4
v 10 12 4
v 10 0 -4
v 10 12 -4
v -10 0 -4
v -10 12 -4
v 4.75 12 0.25
v 5.25 12 0.25
v 5.25 12 -0.25
v 4.75 12 -0.25
v 7 29 0
# 13 vertices

vn 0 0 1
vn 1 0 0
vn 0 0 -1
vn -1 0 0
vn 0 1 0
vn 0 -1 0
vn 0 0.01470429170877 0.99989187717438
vn 0 0 0
vn 0.99474328756332 -0.10240004211664 0
vn 0 0.01470429264009 -0.99989187717438
vn -0.99135476350784 0.13120871782303 0
# 11 normals

vt 0 0 0
vt 0 1 0
vt 0.5 1 0
vt 0.5 0 0
vt 0.68257224559784 0.91344511508942 0
vt 0.68257224559784 0.71364295482636 0
vt 0.61597156524658 0.71364295482636 0
vt 0.61597156524658 0.91344511508942 0
vt 0.70959258079529 0.88339960575104 0
vt 0.70959258079529 0.7356299161911 0
vt 0.58645117282867 0.7356299161911 0
vt 0.58645117282867 0.88339960575104 0
vt 0.58455663919449 0.73830103874207 0
vt 0.58455663919449 0.84184551239014 0
vt 0.71398717164993 0.84184551239014 0
vt 0.71398717164993 0.73830103874207 0
vt 0.70450192689896 0.83200192451477 0
vt 0.70450192689896 0.72799807786942 0
vt 0.60049802064896 0.72799807786942 0
vt 0.60049802064896 0.83200192451477 0
vt 0.66863292455673 0.07461440563202 0
vt 0.67817652225494 0.52345186471939 0
vt 0.67305624485016 0.0767103433609 0
vt 0.54558873176575 1 0
vt 0.67029619216919 0.07985603809357 0
vt 0.66590452194214 0.07781040668488 0
# 26 texture coordinates

o mdl
usemtl ./tex
f 3/4/1 4/3/1 2/2/1 1/1/1
f 5/8/2 6/7/2 4/6/2 3/5/2
f 7/12/3 8/11/3 6/10/3 5/9/3
f 1/8/4 2/7/4 8/6/4 7/5/4
f 4/16/5 6/15/5 8/14/5 2/13/5
f 1/20/6 7/19/6 5/18/6 3/17/6
f 10/23/7 13/22/7 9/21/7
f 11/25/9 13/22/9 10/23/9
f 12/26/10 13/22/10 11/25/10
f 9/21/11 13/22/11 12/26/11

